<?xml version="1.0" encoding="utf-8"?>
<!-- Generator: Adobe Illustrator 16.0.0, SVG Export Plug-In . SVG Version: 6.00 Build 0)  -->
<!DOCTYPE svg PUBLIC "-//W3C//DTD SVG 1.1//EN" "http://www.w3.org/Graphics/SVG/1.1/DTD/svg11.dtd">
<svg version="1.1" id="Layer_1" xmlns="http://www.w3.org/2000/svg" xmlns:xlink="http://www.w3.org/1999/xlink" x="0px" y="0px"
	 width="20.801px" height="19.224px" viewBox="0 0 20.801 19.224" enable-background="new 0 0 20.801 19.224" xml:space="preserve">
<ellipse fill="#F8FFFB" cx="15.432" cy="5.387" rx="1.722" ry="1.595"/>
<g>
	<polygon fill="#A0EAFF" points="9.63,13.49 11.89,11.23 12.49,10.63 10.37,8.51 9.71,9.17 4.55,14.33 5.78,15.56 7.63,15.49 
		7.93,15.19 	"/>
	<path fill="#5EBAFF" d="M10.425,10.2C9.671,9.396,9.21,8.313,9.21,7.125c0-2.485,2.015-4.5,4.5-4.5c2.484,0,4.5,2.015,4.5,4.5
		s-2.016,4.5-4.5,4.5C12.414,11.625,11.246,11.077,10.425,10.2"/>
	<line fill="#FFFFFF" x1="5.824" y1="15.325" x2="7.52" y2="15.255"/>
	<path fill="#FFFFFF" d="M7.074,17.886"/>
	<polygon fill="#FFFFFF" points="8.074,16.886 6.557,15.958 6.824,14.325 8.52,14.255 9.261,15.803 	"/>
	<polygon fill="#FFFFFF" points="9.074,15.886 7.557,14.958 7.824,13.325 9.52,13.255 10.261,14.803 	"/>
	<polygon fill="#FFFFFF" points="11.074,13.886 9.557,12.958 9.824,11.325 11.52,11.255 12.261,12.803 	"/>
	<polygon fill="#FFFFFF" points="10.074,14.886 8.557,13.958 8.824,12.325 10.52,12.255 11.261,13.803 	"/>
</g>
<ellipse fill="#FFFFFF" cx="15.601" cy="5.334" rx="1.659" ry="1.531"/>
<line fill="none" stroke="#ECFCFF" stroke-width="0.2" stroke-miterlimit="10" x1="5.139" y1="14.66" x2="9.86" y2="9.812"/>
</svg>
