<?xml version="1.0" encoding="utf-8"?>
<!-- Generator: Adobe Illustrator 16.0.0, SVG Export Plug-In . SVG Version: 6.00 Build 0)  -->
<!DOCTYPE svg PUBLIC "-//W3C//DTD SVG 1.1//EN" "http://www.w3.org/Graphics/SVG/1.1/DTD/svg11.dtd">
<svg version="1.1" id="Layer_1" xmlns="http://www.w3.org/2000/svg" xmlns:xlink="http://www.w3.org/1999/xlink" x="0px" y="0px"
	 width="246.667px" height="238.667px" viewBox="0 0 246.667 238.667" enable-background="new 0 0 246.667 238.667"
	 xml:space="preserve">
<path fill="#3AE4E8" stroke="#3AE4E8" stroke-width="18" stroke-miterlimit="10" d="M135.667,55.829
	c0,25.681-6.402,59.5-13.121,59.5c-6.72,0-11.213-33.819-11.213-59.5s4.493-33.5,11.213-33.5
	C129.266,22.329,135.667,30.147,135.667,55.829z"/>
<path fill="#62D3ED" stroke="#62D3ED" stroke-width="18" stroke-miterlimit="10" d="M60.667,151.33
	c0-38.571-7.333-102,65.736-100.001c74.903,2.049,64.931,61.431,64.931,100.001"/>
<path fill="#3AE4E8" stroke="#3AE4E8" stroke-width="18" stroke-miterlimit="10" d="M139.667,181.927
	c0,15.61-8.155,36.167-16.716,36.167s-14.284-20.557-14.284-36.167c0-15.61,5.724-20.363,14.284-20.363
	S139.667,166.316,139.667,181.927z"/>
<path fill="#59B8CE" stroke="#0C9EC6" stroke-width="18" stroke-miterlimit="10" d="M126.404,273.329"/>
<path fill="#62D3ED" stroke="#62D3ED" stroke-width="18" stroke-miterlimit="10" d="M225.612,176.722
	c0,13.087-47.111,10.607-103.689,10.607c-56.579,0-101.2,2.48-101.2-10.607s45.866-24.696,102.444-24.696
	S225.612,163.635,225.612,176.722z"/>
</svg>
